<?xml version="1.0" encoding="utf-8"?>
<!-- Generator: Adobe Illustrator 24.1.1, SVG Export Plug-In . SVG Version: 6.00 Build 0)  -->
<svg version="1.1" id="Layer_1" xmlns="http://www.w3.org/2000/svg" xmlns:xlink="http://www.w3.org/1999/xlink" x="0px" y="0px"
	 viewBox="0 0 612 792" enable-background="new 0 0 612 792" xml:space="preserve">
<g>
	<path fill="#D7B670" d="M356.127,460.019c-1.61-0.734-3.31-1.322-4.805-2.241c-1.536-0.944-2.34-2.538-2.838-4.442
		c0.959,0,1.789-0.035,2.613,0.021c0.251,0.017,0.632,0.238,0.704,0.45c1.331,3.914,7.599,4.569,10.851,2.036
		c2.186-1.703,3.307-4.357,3.058-7.655c-2.32,2.66-5.027,4.172-8.519,3.921c-3.436-0.247-6.172-1.743-8.246-4.469
		c-3.206-4.213-2.731-10.804,0.984-14.645c2.189-2.263,4.869-3.308,7.945-3.309c3.04,0,5.678,1.076,7.902,3.793
		c0-1.281,0-2.166,0-3.128c0.977,0,1.795,0,2.726,0c0.026,0.339,0.076,0.683,0.076,1.027c0.003,5.748,0.026,11.497-0.013,17.245
		c-0.016,2.42-0.493,4.753-1.78,6.861c-1.262,2.068-3.044,3.445-5.388,4.096c-0.407,0.113-0.796,0.293-1.193,0.441
		C358.846,460.019,357.487,460.019,356.127,460.019z M349.83,441.078c0.009,0.193,0.013,0.672,0.054,1.148
		c0.488,5.585,6.75,9.07,11.522,6.417c4.199-2.335,5.737-7.858,3.347-12.025c-1.784-3.111-4.927-4.821-7.893-4.292
		C352.534,433.096,349.828,436.354,349.83,441.078z"/>
	<path fill="#D6B46D" d="M102.821,430.301c1.237-0.019,2.473-0.036,3.71-0.061c0.07-0.001,0.139-0.062,0.331-0.153
		c0-2.156,0-4.371,0-6.675c0.93,0,1.738,0,2.672,0c0,2.254,0,4.47,0,6.812c1.378,0,2.635,0,3.99,0c0,0.937,0,1.748,0,2.693
		c-1.248,0-2.504,0-3.93,0c0,6.28,0,12.431,0,18.647c-0.951,0-1.734,0-2.645,0c0-6.129,0-12.251,0-18.626c-1.457,0-2.792,0-4.127,0
		C102.821,432.058,102.821,431.179,102.821,430.301z"/>
	<path fill="#D6B56D" d="M194.755,432.748c-2.046-7.634-4.601-15.056-8.296-22.019c-2.916-5.494-6.151-10.818-9.235-16.223
		c-2.846-4.987-6.114-9.789-8.43-15.012c-4.688-10.575-3.635-20.892,3.131-30.355c3.291-4.603,8.007-7.382,13.496-8.759
		c6.975-1.751,13.928-1.72,20.738,0.723c9.108,3.267,14.277,9.97,16.347,19.237c1.878,8.407,0.257,16.242-4.074,23.57
		c-4.02,6.802-8.201,13.509-12.17,20.34c-5.097,8.772-8.987,18.055-11.335,27.952C194.884,432.388,194.813,432.567,194.755,432.748z
		 M178.525,369.147c0.109,0.995,0.154,2.117,0.372,3.205c0.219,1.088,0.541,2.169,0.937,3.207
		c3.86,10.115,15.991,13.548,24.499,6.95c6.88-5.336,8.469-15.724,3.548-23.185c-4.47-6.776-12.704-9.253-19.952-5.699
		C181.628,356.714,178.817,362.142,178.525,369.147z"/>
	<path fill="#D7B56E" d="M437.148,451.377c-3.619,0-7.048,0-10.629,0c-0.022-0.447-0.061-0.866-0.061-1.285
		c-0.001-25.401-0.038-50.802,0.042-76.203c0.012-3.93,0.033-7.99,0.967-11.763c2.843-11.49,12.29-20.287,24.134-21.936
		c8.461-1.178,16.326,0.328,23.145,5.726c6.041,4.782,9.722,11.012,10.92,18.657c1.041,6.644,0.73,13.201-2.219,19.318
		c-4.766,9.885-12.425,16.023-23.622,17.182c-1.301,0.135-2.613,0.175-4.027,0.266c0-3.403,0-6.652,0-9.925
		c1.706-0.249,3.472-0.331,5.139-0.781c7.365-1.989,12.049-6.743,13.714-14.171c1.504-6.71,0.853-13.213-3.221-18.998
		c-3.338-4.739-8.067-7.111-13.829-7.46c-5.844-0.353-10.973,1.24-15.083,5.577c-3.396,3.582-5.007,7.931-5.293,12.771
		c-0.165,2.787-0.072,5.589-0.073,8.385c-0.004,24.363-0.002,48.725-0.002,73.088C437.148,450.295,437.148,450.767,437.148,451.377z
		"/>
	<path fill="#D6B56D" d="M389.805,375.23c0-3.108,0-6.041,0-9.1c5.003,0,9.941,0,15.044,0c-0.076-0.551-0.085-0.971-0.194-1.364
		c-2.24-8.029-7.341-13.152-15.655-14.388c-7.171-1.067-13.018,1.746-17.336,7.512c-5.851,7.815-5.521,20.974,2.103,28.387
		c7.13,6.933,18.119,7.052,25.227,0.083c1.191-1.168,2.228-2.493,3.448-3.871c2.541,2.383,5.091,4.774,7.878,7.388
		c-1.707,1.711-3.239,3.503-5.025,4.989c-5.893,4.903-12.743,7.242-20.397,6.838c-10.755-0.569-18.812-5.841-24.158-14.99
		c-8.842-15.133-3.918-35.407,13.553-43.931c10.22-4.987,23.399-2.806,31.706,4.944c5.388,5.027,9.179,10.965,10.144,18.37
		c0.357,2.738,0.117,5.555,0.134,8.337c0.006,0.927-0.691,0.797-1.284,0.797c-7.115,0-14.229,0-21.344,0
		C392.413,375.23,391.178,375.23,389.805,375.23z"/>
	<path fill="#D6B56E" d="M245.272,400.492c-3.605,0-6.991,0-10.454,0c-0.038-0.313-0.098-0.578-0.098-0.843
		c0.007-11.383-0.188-22.771,0.099-34.148c0.226-8.964,3.697-16.518,11.453-21.634c3.622-2.389,7.666-3.491,11.979-3.692
		c5.129-0.239,10.039,0.535,14.534,3.162c6.24,3.648,9.94,9.155,11.327,16.146c0.609,3.068,0.9,6.243,0.936,9.373
		c0.114,10.064,0.043,20.13,0.043,30.195c0,0.434,0,0.868,0,1.401c-3.533,0-6.977,0-10.556,0c0-0.523,0-0.991,0-1.46
		c0-10.824,0.02-21.648-0.016-32.472c-0.009-2.595-0.231-5.198-1.339-7.603c-2.377-5.162-6.398-8.038-12.101-8.424
		c-4.471-0.302-8.483,0.793-11.662,4.149c-2.707,2.858-4.067,6.329-4.096,10.202c-0.087,11.383-0.043,22.766-0.05,34.149
		C245.272,399.462,245.272,399.93,245.272,400.492z"/>
	<path fill="#D6B56D" d="M350.459,387.797c-2.136,3.619-4.942,6.341-8.239,8.613c-4.901,3.376-10.318,5.181-16.259,5.326
		c-15.155,0.371-26.678-10.736-29.517-23.18c-2.471-10.834-0.155-20.519,7.477-28.833c4.902-5.339,10.826-8.683,18.035-9.435
		c8.069-0.842,15.39,1.254,21.64,6.498c2.244,1.882,4.186,4.124,6.158,6.094c-2.732,2.731-5.231,5.228-7.771,7.767
		c-0.4-0.633-0.887-1.436-1.406-2.218c-4.946-7.448-14.327-10.406-22.449-6.692c-6.205,2.837-9.944,7.93-11.132,14.652
		c-0.92,5.207-0.611,10.388,2.149,15.081c2.858,4.861,6.815,8.479,12.561,9.543c7.587,1.405,13.759-0.988,18.356-7.238
		c0.707-0.96,1.324-1.987,2.063-3.105C344.895,383.037,347.639,385.385,350.459,387.797z"/>
	<path fill="#D6B56D" d="M150.261,380.722c2.755,2.358,5.479,4.691,8.245,7.059c-1.373,2.551-3.226,4.635-5.36,6.446
		c-5.813,4.932-12.514,7.677-20.192,7.491c-11.262-0.272-19.722-5.614-25.234-15.221c-5.369-9.358-5.845-19.327-1.051-29.019
		c4.765-9.635,12.458-15.966,23.487-17.191c8.148-0.905,15.534,1.35,21.796,6.732c2.133,1.834,3.991,3.987,5.861,5.879
		c-2.716,2.73-5.208,5.234-7.69,7.729c-0.884-1.255-1.765-2.729-2.859-4.022c-7.042-8.328-20.048-8.614-27.102-0.431
		c-6.248,7.248-7.214,15.418-3.572,23.886c2.997,6.969,8.627,11.133,16.509,11.345c7.11,0.191,12.34-3.199,16.055-9.116
		c0.297-0.473,0.591-0.947,0.889-1.418C150.064,380.84,150.108,380.825,150.261,380.722z"/>
	<path fill="#D6B56D" d="M526.14,365.618c-5.891,0-11.712,0-17.596,0c-0.051,0.362-0.12,0.626-0.12,0.889
		c0.003,4.393-0.079,8.789,0.057,13.178c0.098,3.154,0.894,6.152,3.039,8.635c1.975,2.286,4.527,3.195,7.471,3.074
		c4.436-0.183,8.58-1.333,12.272-3.886c0.092-0.063,0.224-0.068,0.491-0.144c0.402,1.711,0.8,3.405,1.198,5.098
		c0.319,1.357,0.583,2.731,0.98,4.065c0.204,0.686,0.035,0.998-0.558,1.319c-3.452,1.867-7.153,2.926-11.023,3.426
		c-3.643,0.471-7.281,0.368-10.787-0.758c-7.322-2.351-11.586-7.501-13.16-14.925c-0.345-1.626-0.515-3.319-0.52-4.982
		c-0.045-13.219-0.031-26.439-0.032-39.658c0-0.275,0.035-0.55,0.059-0.912c3.478,0,6.925,0,10.516,0c0,5.216,0,10.384,0,15.66
		c5.962,0,11.783,0,17.715,0C526.14,359.012,526.14,362.218,526.14,365.618z"/>
	<path fill="#D7B670" d="M194.821,308.537c-6.372,0-12.666,0-19.139,0c0.048,0.689-0.016,1.293,0.144,1.83
		c0.917,3.08,2.918,5.162,6.093,5.771c3.186,0.612,6.214-0.055,8.061-2.901c1.082-1.666,2.286-1.772,3.875-1.508
		c-0.865,3.993-5.296,7.488-10.36,7.278c-6.419-0.265-11.023-5.651-10.779-11.751c0.273-6.817,5.386-11.363,12.097-10.881
		C191.226,296.837,195.038,302.292,194.821,308.537z M191.725,306.122c-0.947-5.232-4.585-7.621-9.214-7.096
		c-3.715,0.422-6.938,3.961-6.616,7.096C181.14,306.122,186.392,306.122,191.725,306.122z"/>
	<path fill="#D7B670" d="M239.652,441.814c-6.368,0-12.662,0-18.937,0c-0.388,2.481,1.327,5.403,3.911,6.81
		c3.549,1.932,8.145,0.931,10.406-2.268c1.141-1.614,1.628-1.783,3.735-1.293c-1.128,4.107-5.895,8.111-12.188,7.01
		c-5.682-0.995-9.78-7.022-8.797-13.165c0.959-5.997,5.964-9.856,12.249-9.231C236.48,430.317,239.939,436.024,239.652,441.814z
		 M220.672,439.326c5.352,0,10.622,0,15.911,0c-0.965-4.783-3.969-7.25-8.545-7.101C224.231,432.348,221.171,435.27,220.672,439.326
		z"/>
	<path fill="#D7B56F" d="M168.318,451.548c0-0.985,0-1.92,0-3.217c-2.811,3.336-6.254,4.215-10.086,3.716
		c-2.683-0.349-4.88-1.729-6.562-3.84c-3.647-4.577-3.137-11.607,0.977-15.486c3.9-3.678,11.286-4.389,15.615,0.739
		c0-1.135,0-2.091,0-3.118c0.939,0,1.719,0,2.598,0c0,7.043,0,14.082,0,21.205C170.079,451.548,169.297,451.548,168.318,451.548z
		 M168.3,440.892c0.016-4.569-3.812-8.669-8.058-8.629c-4.498,0.042-8.153,3.939-8.212,8.756c-0.059,4.754,3.66,8.67,8.226,8.663
		C164.56,449.675,168.283,445.607,168.3,440.892z"/>
	<path fill="#D6B56E" d="M136.566,318.319c-0.837,0-1.619,0-2.493,0c0-9.383,0-18.736,0-28.155c0.829,0,1.612,0,2.556,0
		c0,2.964,0,5.921,0,8.772c1.454-0.733,2.749-1.757,4.193-2.049c5.963-1.204,10.303,0.824,10.829,7.794
		c0.338,4.481,0.063,9.008,0.063,13.606c-0.824,0-1.636,0-2.605,0c0-0.6,0.009-1.185-0.001-1.769
		c-0.071-4.028-0.034-8.062-0.255-12.082c-0.18-3.264-1.993-5.052-4.846-5.234c-3.752-0.239-6.272,1.294-7.001,4.395
		c-0.262,1.113-0.313,2.293-0.327,3.443c-0.044,3.633-0.024,7.267-0.032,10.901C136.646,318.02,136.615,318.097,136.566,318.319z"/>
	<path fill="#D8B772" d="M331.247,451.563c-0.905,0-1.728,0-2.683,0c0-1.215,0.015-2.363-0.003-3.51
		c-0.057-3.587,0.019-7.184-0.231-10.759c-0.283-4.051-3.504-5.291-6.996-4.734c-3.167,0.505-4.966,2.658-5.027,5.898
		c-0.074,3.911-0.044,7.824-0.058,11.736c-0.002,0.43,0,0.859,0,1.364c-0.947,0-1.766,0-2.764,0c0-0.479,0-0.943,0-1.406
		c0-6.148,0.005-12.296-0.006-18.444c-0.002-0.869-0.138-1.641,1.224-1.599c1.136,0.035,1.788,0.213,1.554,1.507
		c-0.027,0.148,0.032,0.311,0.075,0.666c0.46-0.342,0.827-0.612,1.19-0.885c3.384-2.544,9.045-2.052,11.847,1.042
		c1.547,1.708,1.906,3.855,1.953,6.017c0.092,4.23,0.038,8.462,0.04,12.694C331.361,451.259,331.302,451.371,331.247,451.563z"/>
	<path fill="#D7B66F" d="M185.256,430.269c0.842,0,1.581-0.117,2.251,0.046c0.377,0.092,0.772,0.593,0.935,1
		c2.018,5.03,3.995,10.076,5.984,15.117c0.101,0.256,0.218,0.505,0.405,0.938c1.112-2.768,2.163-5.377,3.209-7.988
		c1.037-2.59,2.122-5.162,3.077-7.781c0.374-1.024,0.863-1.526,1.978-1.335c0.422,0.072,0.866,0.012,1.56,0.012
		c-0.551,1.356-1.036,2.55-1.522,3.742c-2.257,5.535-4.547,11.057-6.739,16.618c-0.397,1.006-1.02,0.973-1.835,1.017
		c-0.845,0.046-1.253-0.226-1.565-1.044c-2.458-6.44-4.973-12.859-7.464-19.287C185.421,431.038,185.374,430.729,185.256,430.269z"
		/>
	<path fill="#D7B671" d="M556.445,387.709c-0.017,5.27-4.158,9.331-9.494,9.311c-5.107-0.019-9.403-4.31-9.398-9.387
		c0.005-5.092,4.368-9.467,9.477-9.504C552.231,378.093,556.462,382.399,556.445,387.709z M547.032,395.127
		c4.241-0.007,7.569-3.243,7.643-7.432c0.072-4.109-3.449-7.662-7.607-7.677c-4.071-0.014-7.615,3.471-7.641,7.515
		C539.398,391.722,542.815,395.134,547.032,395.127z"/>
	<path fill="#D6B46D" d="M103.367,297.01c1.342,0,2.601,0,3.986,0c0-2.334,0-4.547,0-6.834c0.94,0,1.751,0,2.699,0
		c0,2.27,0,4.482,0,6.824c1.39,0,2.648,0,3.985,0c0,0.943,0,1.752,0,2.695c-1.305,0-2.564,0-3.946,0c0,6.253,0,12.377,0,18.592
		c-0.937,0-1.748,0-2.681,0c0-6.138,0-12.263,0-18.551c-1.403,0-2.692,0-4.043,0C103.367,298.79,103.367,298.007,103.367,297.01z"/>
	<path fill="#D8B875" d="M257.906,451.566c-0.968,0-1.791,0-2.681,0c0-9.433,0-18.795,0-28.268c0.55-0.033,1.06-0.035,1.562-0.1
		c0.979-0.127,1.208,0.32,1.202,1.238c-0.036,5.43-0.018,10.86-0.018,16.29c0,3.314,0.001,6.628-0.003,9.942
		C257.968,450.938,257.932,451.209,257.906,451.566z"/>
	<path fill="#D8B875" d="M274.604,451.545c0-0.512,0-0.907,0-1.301c0-8.545-0.004-17.089,0.013-25.634
		c0.001-0.44,0.119-1.225,0.297-1.26c0.723-0.141,1.494-0.081,2.239-0.013c0.11,0.01,0.256,0.462,0.256,0.709
		c0.006,9.063-0.003,18.127-0.014,27.19c0,0.073-0.049,0.146-0.108,0.309C276.468,451.545,275.617,451.545,274.604,451.545z"/>
	<path fill="#D8B772" d="M130.798,451.58c-0.957,0-1.784,0-2.692,0c0-7.095,0-14.137,0-21.299c0.803,0,1.581,0,2.464,0
		c0.036,0.689,0.069,1.312,0.113,2.144c1.353-1.486,2.814-2.542,4.892-2.484c0,0.982,0,1.919,0,2.886
		c-0.285,0.085-0.545,0.176-0.812,0.24c-2.759,0.654-3.843,1.913-3.88,4.767c-0.055,4.19-0.022,8.381-0.03,12.572
		C130.852,450.758,130.821,451.11,130.798,451.58z"/>
	<path fill="#D7B56F" d="M296.774,451.565c-0.925,0-1.748,0-2.633,0c0-7.101,0-14.135,0-21.234c0.901,0,1.722,0,2.633,0
		C296.774,437.4,296.774,444.433,296.774,451.565z"/>
	<path fill="#D7B56F" d="M294.15,423.396c0.948,0,1.765,0,2.647,0c0,1.412,0,2.748,0,4.188c-0.862,0-1.709,0-2.647,0
		C294.15,426.219,294.15,424.852,294.15,423.396z"/>
	<path fill="#D8B772" d="M549.193,387.994c0.716,1.475,1.373,2.828,2.038,4.198c-1.565,0.463-1.66,0.426-2.287-0.872
		c-0.277-0.574-0.61-1.134-0.796-1.738c-0.424-1.379-1.296-1.781-2.753-1.316c0,1.291,0,2.629,0,4.066c-0.61,0-1.094,0-1.65,0
		c0-3.205,0-6.381,0-9.85c1.948,0.104,3.884,0.108,5.791,0.347c1.042,0.131,1.759,0.901,1.866,2.057
		c0.115,1.24-0.323,2.185-1.469,2.753C549.723,387.743,549.509,387.842,549.193,387.994z M545.426,386.901
		c1.049,0,2.035,0.075,3.003-0.023c0.789-0.08,1.271-0.618,1.278-1.465c0.006-0.801-0.319-1.447-1.139-1.586
		c-1.025-0.174-2.075-0.205-3.142-0.301C545.426,384.792,545.426,385.807,545.426,386.901z"/>
</g>
</svg>
